# xmcd
#
# Track frame offsets:
#      150
#      19737
#      35600
#      50635
#      61262
#      85875
#      99037
#      118625
#      139337
#      163612
# 
# Disc length: 2459 seconds
#
# Revision: 1
# Processed by: cddbd v1.4PL0 Copyright (c) Steve Scherf et al.
#
# Submitted via: FreeRIP 1.20
#
DISCID=7e09990a
DTITLE=Willie Nelson - Willie Nelson Volume 2
DYEAR=1998
DGENRE=Country
TTITLE0=Georgia On My Mind
TTITLE1=Let It Be Me
TTITLE2=Little Old Fashioned Karma
TTITLE3=Island In The Sea
TTITLE4=For The Good Times
TTITLE5=Good Time Charlie's Got The Blues
TTITLE6=Please Come To Boston
TTITLE7=September Song
TTITLE8=Can I Sleep In Your Arms
TTITLE9=Uncloudy Day
EXTD=
EXTT0=
EXTT1=
EXTT2=
EXTT3=
EXTT4=
EXTT5=
EXTT6=
EXTT7=
EXTT8=
EXTT9=
PLAYORDER=
